<mxfile host="app.diagrams.net" modified="2023-10-26T08:09:47.638Z" agent="Mozilla/5.0 (Windows NT 10.0; Win64; x64) AppleWebKit/537.36 (KHTML, like Gecko) Chrome/115.0.0.0 Safari/537.36 Edg/115.0.1901.188" version="22.0.8" etag="EC1apbSjPACdO4t-zAyP" type="github">
  <diagram name="Page-1" id="Da8R8mn5k4xk5P3nZk4e">
    <mxGraphModel>
      <root>
        <mxCell id="0" />
        <mxCell id="1" parent="0" />
      </root>
    </mxGraphModel>
  </diagram>
</mxfile>
